<svg xmlns="http://www.w3.org/2000/svg" height="48" viewBox="0 -960 960 960" width="48"><path d="M467.804-146.077q9.21 0 17.766-3.654 8.556-3.654 14.276-9.961l303.231-303.462q21.308-21.308 36.115-45.474Q854-532.795 854-558.538q0-29.077-12.308-54.5-12.307-25.423-32.615-46.731L684.461-784.385q-14.307-13.307-34.2-21.461Q630.367-814 606.846-814q-22.743 0-41.795 8.154-19.051 8.154-33.589 20.461l-32 33 75.985 75.228q9.861 11.08 18.169 29.074 8.307 17.995 8.307 35.468 0 32.144-23.538 55.88Q554.846-533 523.047-533q-19.663 0-35.663-5.692-15.999-5.693-28.377-17.457l-69.622-71.236-178.666 178.666q-6.488 6.488-10.027 14.845-3.538 8.356-3.538 17.4 0 14.32 8.923 22.859 8.923 8.538 22.394 8.538 9.774 0 18.099-4.154 8.325-4.154 14.045-9.692l130-130 30 30L290.781-369.88q-6.473 7.265-10.012 15.325-3.538 8.061-3.538 17.559 0 12.919 8.923 22.342 8.923 9.423 23 9.423 9.362 0 17.61-3.654 8.247-3.653 13.928-9.961l139.231-140.231 30 30-140.043 138.26q-4.495 7.279-9.034 15.138-4.538 7.859-4.538 17.602 0 14.077 9.423 23t22.227 8.923q9.441 0 17.22-3.538 7.78-3.539 14.591-10.077L559-379l30 30-139.274 139.274q-6.495 6.495-10.034 15.325-3.538 8.83-3.538 17.328 0 14.15 9.192 22.573 9.193 8.423 22.458 8.423Zm-.663 40.77q-32.349 0-54.025-21.478-21.676-21.477-18.731-55.718-34 1.272-58.616-20.92-24.615-22.192-21.461-61.038-38.077.384-60.424-20.308-22.346-20.692-19.423-58.769-34.384.153-59.23-21.423-24.847-21.577-24.847-60.27 0-14.692 7.455-31.433 7.455-16.742 17.699-27.336l208.847-209.846L483.231-595q6.231 7.231 16.333 13.115Q509.667-576 521.615-576q13 0 24.77-10.71 11.769-10.709 11.769-26.29 0-10.026-5.654-18.397-5.654-8.372-11.885-16.372L404.071-784.307q-15.379-15.385-33.879-22.539-18.5-7.154-38.577-7.154-19.743 0-37.525 7.154t-32.031 22.318L149.385-672.769q-24.539 24.538-34.847 51.5-10.307 26.961-7.769 58.307.769 10.424 5.577 19.597 4.808 9.173 10.731 16.365l-35.77 35q-7.769-10.846-15.153-30.385-7.385-19.538-9.154-42.077-1.77-39.461 13.577-76.653 15.346-37.193 42.807-64.654L235-821.385q16.692-16.692 41.486-26.423 24.793-9.731 55.923-9.731 29.13 0 54.63 10.231 25.5 10.231 46.192 30.923l32 33 33-33q22.692-20.692 49.601-30.923 26.909-10.231 59.038-10.231 37.13 0 62.015 9.731 24.884 9.731 41.811 26.658l129.381 129.381q27.692 27.692 42.692 62.033 15 34.34 15 71.23 0 32.313-18 63.602-18 31.289-45.692 58.981L529.846-130.692q-11.461 12.231-28.529 18.808-17.068 6.577-34.176 6.577ZM319.846-627.615Z"/></svg>