<svg xmlns="http://www.w3.org/2000/svg" height="48" viewBox="0 -960 960 960" width="48"><path d="M632.077-500.923q-46.732-39.336-86.866-77.014t-69.459-72.844q-29.326-35.165-46.693-68.59-17.367-33.424-17.367-63.421 0-45.273 32.462-78.01t79.565-32.737q28.127 0 55.973 16.5 27.847 16.5 52.385 47.885 24.538-31.385 52.639-47.885 28.1-16.5 56.708-16.5 47.006 0 79.022 32.737 32.016 32.737 32.016 78.01 0 29.997-17.367 63.421-17.367 33.425-47.077 68.59-29.71 35.166-70.156 72.99-40.446 37.825-85.785 76.868Zm0-60q68.385-60 122.5-119.156 54.115-59.157 54.115-102.609 0-29.604-18.279-48.343-18.279-18.738-48.083-18.738-18.094 0-37.597 11.077-19.502 11.077-45.733 43.615l-26.923 33.846-27.692-34.846q-26.231-32.538-46.081-43.115-19.849-10.577-34.913-10.577-30.948 0-49.439 18.738-18.49 18.739-18.49 48.343 0 43.452 54.115 102.609 54.115 59.156 122.5 119.156Zm-81 456.769-313.692-91.615v54.616H61.538v-344.77h273.539l249 92.615q25.308 8.923 40.077 26.423 14.769 17.5 14.769 60.347h125.308q38 0 58.962 27.365 20.961 27.365 20.961 71.327v13.462l-293.077 90.23Zm-445.769-80.769h87.307v-257.231h-87.307v257.231Zm442.538 34.769 251.308-76.692q-2.154-17-10.385-26.462-8.23-9.461-24.538-9.461H564.539q-25.469 0-51.955-3.838-26.485-3.837-43.43-9.624L381.846-303l17.308-43.077 68.231 24.539q25.461 9 49.769 12t78.308 3q0-18.923-6.039-29.497-6.038-10.574-19.568-16.032l-241.624-90.087h-90.846v200.385l310.461 91.615ZM192.615-313.538Zm402.847 7Zm-402.847-7Zm44.77 0Zm394.692-391.539Z"/></svg>